<?xml version="1.0" standalone="no"?><!DOCTYPE svg PUBLIC "-//W3C//DTD SVG 1.1//EN" "http://www.w3.org/Graphics/SVG/1.1/DTD/svg11.dtd"><svg t="1679619017228" class="icon" viewBox="0 0 1024 1024" version="1.1" xmlns="http://www.w3.org/2000/svg" p-id="4706" data-spm-anchor-id="a313x.7781069.0.i1" xmlns:xlink="http://www.w3.org/1999/xlink" width="200" height="200"><path d="M713.28 734.08A328 328 0 0 1 288 308.8a32 32 0 0 0-44.48-40.32 378.88 378.88 0 1 0 510.08 510.08 32 32 0 0 0-40.32-44.48zM427.2 199.04l42.88 14.4a90.56 90.56 0 0 1 57.28 57.28l14.4 42.88a17.28 17.28 0 0 0 32 0l14.4-42.88a90.56 90.56 0 0 1 57.28-57.28l42.88-14.4a17.28 17.28 0 0 0 0-32l-42.88-14.4A90.56 90.56 0 0 1 588.8 96L576 51.84a17.28 17.28 0 0 0-32 0L527.36 96a90.56 90.56 0 0 1-57.28 57.28l-42.88 14.4a17.28 17.28 0 0 0 0 32z m559.04 239.36l-42.88-14.4a90.56 90.56 0 0 1-57.28-57.28l-14.4-42.88a17.28 17.28 0 0 0-32 0l-14.4 42.88a90.56 90.56 0 0 1-57.28 57.6l-42.88 14.4a17.28 17.28 0 0 0 0 32l42.88 14.4A90.56 90.56 0 0 1 824.64 544l14.4 42.88a17.28 17.28 0 0 0 32 0l15.04-42.88a90.56 90.56 0 0 1 57.28-57.28l42.88-14.4a17.28 17.28 0 0 0 0-32z" fill="#8a8a8a" p-id="4707"></path></svg>